<svg width="57" height="16" viewBox="0 0 57 16" fill="none" xmlns="http://www.w3.org/2000/svg">
<path d="M2.762 4.47V7.62H6.992V9.618H2.762V12.948H7.532V15H0.242V2.418H7.532V4.47H2.762ZM13.9801 12.678L16.5001 5.028H19.1821L15.4921 15H12.4321L8.76008 5.028H11.4601L13.9801 12.678ZM25.0255 15.162C24.0655 15.162 23.2015 14.952 22.4335 14.532C21.6655 14.1 21.0595 13.494 20.6155 12.714C20.1835 11.934 19.9675 11.034 19.9675 10.014C19.9675 8.994 20.1895 8.094 20.6335 7.314C21.0895 6.534 21.7075 5.934 22.4875 5.514C23.2675 5.082 24.1375 4.866 25.0975 4.866C26.0575 4.866 26.9275 5.082 27.7075 5.514C28.4875 5.934 29.0995 6.534 29.5435 7.314C29.9995 8.094 30.2275 8.994 30.2275 10.014C30.2275 11.034 29.9935 11.934 29.5255 12.714C29.0695 13.494 28.4455 14.1 27.6535 14.532C26.8735 14.952 25.9975 15.162 25.0255 15.162ZM25.0255 12.966C25.4815 12.966 25.9075 12.858 26.3035 12.642C26.7115 12.414 27.0355 12.078 27.2755 11.634C27.5155 11.19 27.6355 10.65 27.6355 10.014C27.6355 9.066 27.3835 8.34 26.8795 7.836C26.3875 7.32 25.7815 7.062 25.0615 7.062C24.3415 7.062 23.7355 7.32 23.2435 7.836C22.7635 8.34 22.5235 9.066 22.5235 10.014C22.5235 10.962 22.7575 11.694 23.2255 12.21C23.7055 12.714 24.3055 12.966 25.0255 12.966Z" fill="white"/>
<path d="M39.834 2.436V4.47H34.596V7.692H38.61V9.69H34.596V15H32.076V2.436H39.834ZM42.8989 3.84C42.4549 3.84 42.0829 3.702 41.7829 3.426C41.4949 3.138 41.3509 2.784 41.3509 2.364C41.3509 1.944 41.4949 1.596 41.7829 1.32C42.0829 1.032 42.4549 0.887999 42.8989 0.887999C43.3429 0.887999 43.7089 1.032 43.9969 1.32C44.2969 1.596 44.4469 1.944 44.4469 2.364C44.4469 2.784 44.2969 3.138 43.9969 3.426C43.7089 3.702 43.3429 3.84 42.8989 3.84ZM44.1409 5.028V15H41.6209V5.028H44.1409ZM52.1567 4.884C53.3447 4.884 54.3047 5.262 55.0367 6.018C55.7687 6.762 56.1347 7.806 56.1347 9.15V15H53.6147V9.492C53.6147 8.7 53.4167 8.094 53.0207 7.674C52.6247 7.242 52.0847 7.026 51.4007 7.026C50.7047 7.026 50.1527 7.242 49.7447 7.674C49.3487 8.094 49.1507 8.7 49.1507 9.492V15H46.6307V5.028H49.1507V6.27C49.4867 5.838 49.9127 5.502 50.4287 5.262C50.9567 5.01 51.5327 4.884 52.1567 4.884Z" fill="#5CE1E6"/>
</svg>
